<svg width="171" height="171" viewBox="0 0 171 171" fill="none" xmlns="http://www.w3.org/2000/svg">
<rect x="36.5" y="35.5" width="99" height="99" rx="49.5" fill="white"/>
<rect x="36.5" y="35.5" width="99" height="99" rx="49.5" stroke="url(#paint0_linear_2002_112)"/>
<path d="M82.12 74.6654C81.1022 74.6654 80.0944 74.8659 79.1542 75.2553C78.2139 75.6448 77.3595 76.2157 76.6399 76.9353C75.9202 77.655 75.3494 78.5093 74.9599 79.4496C74.5704 80.3899 74.37 81.3977 74.37 82.4154C74.37 83.4331 74.5704 84.4409 74.9599 85.3812C75.3494 86.3215 75.9202 87.1758 76.6399 87.8955C77.3595 88.6151 78.2139 89.186 79.1542 89.5755C80.0944 89.9649 81.1022 90.1654 82.12 90.1654C84.1754 90.1654 86.1466 89.3489 87.6 87.8955C89.0534 86.4421 89.87 84.4708 89.87 82.4154C89.87 80.36 89.0534 78.3887 87.6 76.9353C86.1466 75.4819 84.1754 74.6654 82.12 74.6654ZM78.245 82.4154C78.245 81.3877 78.6532 80.4021 79.3799 79.6754C80.1066 78.9487 81.0922 78.5404 82.12 78.5404C83.1477 78.5404 84.1333 78.9487 84.86 79.6754C85.5867 80.4021 85.995 81.3877 85.995 82.4154C85.995 83.4431 85.5867 84.4287 84.86 85.1554C84.1333 85.8821 83.1477 86.2904 82.12 86.2904C81.0922 86.2904 80.1066 85.8821 79.3799 85.1554C78.6532 84.4287 78.245 83.4431 78.245 82.4154ZM60.1616 72.7279C60.1616 71.1863 60.774 69.7079 61.8641 68.6178C62.9541 67.5278 64.4325 66.9154 65.9741 66.9154H98.2658C99.0291 66.9154 99.7849 67.0657 100.49 67.3579C101.195 67.65 101.836 68.0781 102.376 68.6178C102.916 69.1576 103.344 69.7984 103.636 70.5036C103.928 71.2088 104.078 71.9646 104.078 72.7279V92.1029C104.078 92.8662 103.928 93.622 103.636 94.3273C103.344 95.0325 102.916 95.6732 102.376 96.213C101.836 96.7527 101.195 97.1809 100.49 97.473C99.7849 97.7651 99.0291 97.9154 98.2658 97.9154H65.9741C64.4325 97.9154 62.9541 97.303 61.8641 96.213C60.774 95.1229 60.1616 93.6445 60.1616 92.1029V72.7279ZM65.9741 70.7904C65.4603 70.7904 64.9675 70.9945 64.6041 71.3579C64.2407 71.7212 64.0366 72.214 64.0366 72.7279V74.6654H65.9741C66.488 74.6654 66.9808 74.4613 67.3441 74.0979C67.7075 73.7346 67.9116 73.2418 67.9116 72.7279V70.7904H65.9741ZM64.0366 86.2904H65.9741C67.5157 86.2904 68.9941 86.9028 70.0842 87.9928C71.1742 89.0829 71.7866 90.5613 71.7866 92.1029V94.0404H92.4533V92.1029C92.4533 90.5613 93.0657 89.0829 94.1557 87.9928C95.2458 86.9028 96.7242 86.2904 98.2658 86.2904H100.203V78.5404H98.2658C96.7242 78.5404 95.2458 77.928 94.1557 76.838C93.0657 75.7479 92.4533 74.2695 92.4533 72.7279V70.7904H71.7866V72.7279C71.7866 73.4912 71.6363 74.247 71.3442 74.9523C71.0521 75.6575 70.6239 76.2982 70.0842 76.838C69.5444 77.3777 68.9037 77.8058 68.1985 78.098C67.4933 78.3901 66.7374 78.5404 65.9741 78.5404H64.0366V86.2904ZM100.203 74.6654V72.7279C100.203 72.214 99.9992 71.7212 99.6358 71.3579C99.2725 70.9945 98.7796 70.7904 98.2658 70.7904H96.3283V72.7279C96.3283 73.7974 97.1963 74.6654 98.2658 74.6654H100.203ZM100.203 90.1654H98.2658C97.7519 90.1654 97.2591 90.3695 96.8958 90.7329C96.5324 91.0962 96.3283 91.589 96.3283 92.1029V94.0404H98.2658C98.7796 94.0404 99.2725 93.8363 99.6358 93.4729C99.9992 93.1096 100.203 92.6168 100.203 92.1029V90.1654ZM64.0366 92.1029C64.0366 93.1724 64.9046 94.0404 65.9741 94.0404H67.9116V92.1029C67.9116 91.589 67.7075 91.0962 67.3441 90.7329C66.9808 90.3695 66.488 90.1654 65.9741 90.1654H64.0366V92.1029ZM66.3642 101.79C67.0446 102.969 68.0233 103.947 69.2019 104.628C70.3805 105.308 71.7175 105.666 73.0783 105.665H99.5575C101.169 105.665 102.765 105.348 104.253 104.731C105.742 104.115 107.095 103.211 108.234 102.071C109.374 100.932 110.278 99.5792 110.894 98.0904C111.511 96.6017 111.828 95.006 111.828 93.3946V79.8321C111.829 78.4713 111.471 77.1343 110.791 75.9557C110.11 74.7771 109.132 73.7984 107.953 73.118V93.3946C107.953 95.6213 107.069 97.7568 105.494 99.3313C103.92 100.906 101.784 101.79 99.5575 101.79H66.3642Z" fill="url(#paint1_linear_2002_112)"/>
<path d="M170.849 85.3368C170.849 132.383 132.637 170.522 85.5 170.522C38.363 170.522 0.151464 132.383 0.151464 85.3368C0.151464 38.2905 38.363 0.151464 85.5 0.151464C132.637 0.151464 170.849 38.2905 170.849 85.3368Z" stroke="url(#paint2_linear_2002_112)" stroke-width="0.302928"/>
<path d="M160.08 85.3368C160.08 126.435 126.69 159.753 85.5009 159.753C44.3115 159.753 10.9215 126.435 10.9215 85.3368C10.9215 44.2381 44.3115 10.9205 85.5009 10.9205C126.69 10.9205 160.08 44.2381 160.08 85.3368Z" stroke="url(#paint3_linear_2002_112)" stroke-width="0.302928"/>
<defs>
<linearGradient id="paint0_linear_2002_112" x1="36" y1="85" x2="136" y2="85" gradientUnits="userSpaceOnUse">
<stop stop-color="#009BFB"/>
<stop offset="1" stop-color="#1D3FA0"/>
</linearGradient>
<linearGradient id="paint1_linear_2002_112" x1="60.1616" y1="86.2904" x2="111.828" y2="86.2904" gradientUnits="userSpaceOnUse">
<stop stop-color="#009BFB"/>
<stop offset="1" stop-color="#1D3FA0"/>
</linearGradient>
<linearGradient id="paint2_linear_2002_112" x1="35.4767" y1="3.67169" x2="98.8585" y2="193.238" gradientUnits="userSpaceOnUse">
<stop stop-color="#009BFB"/>
<stop offset="0.507204" stop-color="#009BFB" stop-opacity="0.415042"/>
<stop offset="1" stop-color="#009BFB" stop-opacity="0.01"/>
</linearGradient>
<linearGradient id="paint3_linear_2002_112" x1="41.7783" y1="13.9774" x2="85.5073" y2="188.2" gradientUnits="userSpaceOnUse">
<stop stop-color="#009BFB"/>
<stop offset="0.507204" stop-color="#009BFB" stop-opacity="0.415042"/>
<stop offset="1" stop-color="#009BFB" stop-opacity="0.01"/>
</linearGradient>
</defs>
</svg>
