<svg width="171" height="171" viewBox="0 0 171 171" fill="none" xmlns="http://www.w3.org/2000/svg">
<rect x="37" y="35.5" width="99" height="99" rx="49.5" fill="white"/>
<rect x="37" y="35.5" width="99" height="99" rx="49.5" stroke="url(#paint0_linear_2002_113)"/>
<g clip-path="url(#clip0_2002_113)">
<path d="M100.97 67.441C100.665 67.441 100.394 67.2487 100.296 66.9625C100.101 66.3929 99.8684 65.8299 99.6036 65.2891C99.4718 65.02 99.5281 64.6944 99.7438 64.4787C100.97 63.2527 100.97 61.2685 99.7438 60.0429L98.1858 58.4848C96.9628 57.2619 94.973 57.262 93.7499 58.4848C93.5342 58.7005 93.2086 58.7568 92.9396 58.6251C92.3996 58.3606 91.8366 58.1276 91.2664 57.9325C90.98 57.8346 90.7877 57.5638 90.7877 57.2575C90.7877 55.528 89.3806 54.121 87.6511 54.121H85.447C83.7174 54.121 82.3104 55.5281 82.3104 57.2589C82.3104 57.5639 82.1181 57.8347 81.8317 57.9326C81.2615 58.1276 80.6987 58.3606 80.1586 58.6252C79.8895 58.7569 79.5638 58.7006 79.3481 58.4849C78.1252 57.2621 76.1353 57.262 74.9122 58.4849L73.3543 60.0429C72.1284 61.2689 72.1285 63.253 73.3542 64.4788C73.5699 64.6945 73.6263 65.0201 73.4944 65.2893C73.2299 65.8295 72.9969 66.3925 72.802 66.9625C72.7041 67.2487 72.4333 67.4412 72.127 67.4412C70.3975 67.4412 68.9905 68.8483 68.9905 70.5777V72.7819C68.9905 74.5115 70.3976 75.9186 72.1284 75.9186C72.4335 75.9186 72.7042 76.1109 72.8021 76.3973C72.9971 76.9674 73.2301 77.5302 73.4947 78.0704C73.6264 78.3395 73.5701 78.6652 73.3545 78.8809C72.1285 80.1068 72.1286 82.091 73.3543 83.3167L74.9123 84.8747C76.1383 86.1005 78.1225 86.1004 79.3482 84.8747C79.5639 84.6591 79.8898 84.6026 80.1586 84.7343C80.6985 84.9989 81.2615 85.2319 81.8319 85.427C82.1181 85.5249 82.3105 85.7956 82.3105 86.102C82.3105 87.8315 83.7177 89.2386 85.4471 89.2386H87.6513C89.3809 89.2386 90.7878 87.8315 90.7878 86.1007C90.7878 85.7957 90.9801 85.5249 91.2665 85.427C91.837 85.2319 92.3998 84.9989 92.9396 84.7344C93.209 84.6026 93.5345 84.659 93.75 84.8747C94.976 86.1005 96.9601 86.1004 98.1859 84.8747L99.7439 83.3167C100.97 82.0907 100.97 80.1066 99.7439 78.8809C99.5283 78.6652 99.4718 78.3395 99.6037 78.0704C99.8685 77.5298 100.102 76.9669 100.296 76.3973C100.394 76.111 100.665 75.9186 100.971 75.9186C102.701 75.9186 104.108 74.5115 104.108 72.7819V70.5777C104.108 68.8482 102.701 67.441 100.97 67.441ZM93.3992 78.5298C89.6222 82.3069 83.4763 82.307 79.699 78.5298C75.9219 74.7527 75.9219 68.6068 79.699 64.8295C83.4849 61.0437 89.613 61.0432 93.3992 64.8295C97.1764 68.6068 97.1764 74.7527 93.3992 78.5298Z" fill="url(#paint1_linear_2002_113)"/>
<path d="M116.741 90.0103C115.414 87.6849 112.459 86.8771 110.134 88.2035L96.6541 95.8938C96.0999 93.4727 93.9301 91.6603 91.3433 91.6603H78.2131C74.4578 88.6163 69.2082 88.4618 65.3081 91.0743V88.0275C65.3081 87.3587 64.766 86.8165 64.0972 86.8165H56.8315C56.1627 86.8165 55.6206 87.3587 55.6206 88.0275V114.668C55.6206 115.337 56.1627 115.879 56.8315 115.879H64.0972C64.766 115.879 65.3081 115.337 65.3081 114.668V113.454C85.178 113.453 84.3044 113.454 84.3518 113.452C85.1121 113.419 85.867 113.201 86.5352 112.82L114.934 96.6188C117.26 95.2926 118.068 92.3327 116.741 90.0103ZM62.8862 113.457H58.0425V89.2384H62.8862V113.457ZM113.734 94.5148L85.3356 110.716C85.0029 110.905 84.6447 111.012 84.2705 111.032H65.3081V94.2051C68.4602 90.9829 73.586 90.7924 76.9683 93.7788C77.1896 93.9741 77.4746 94.082 77.7699 94.082H91.3433C93.0125 94.082 94.3706 95.4401 94.3706 97.1094C94.3706 98.7787 93.0125 100.137 91.3433 100.137H76.6207C75.9519 100.137 75.4097 100.679 75.4097 101.348C75.4097 102.016 75.9519 102.559 76.6207 102.559H91.3433C93.7777 102.559 95.844 100.954 96.5409 98.7466L111.334 90.3071C112.496 89.6443 113.973 90.0467 114.638 91.2111C115.302 92.3735 114.895 93.8528 113.734 94.5148Z" fill="url(#paint2_linear_2002_113)"/>
</g>
<path d="M170.849 85.3368C170.849 132.383 132.637 170.522 85.5 170.522C38.363 170.522 0.151464 132.383 0.151464 85.3368C0.151464 38.2905 38.363 0.151464 85.5 0.151464C132.637 0.151464 170.849 38.2905 170.849 85.3368Z" stroke="url(#paint3_linear_2002_113)" stroke-width="0.302928"/>
<path d="M160.08 85.3368C160.08 126.435 126.69 159.753 85.5009 159.753C44.3115 159.753 10.9215 126.435 10.9215 85.3368C10.9215 44.2381 44.3115 10.9205 85.5009 10.9205C126.69 10.9205 160.08 44.2381 160.08 85.3368Z" stroke="url(#paint4_linear_2002_113)" stroke-width="0.302928"/>
<defs>
<linearGradient id="paint0_linear_2002_113" x1="36.5" y1="85" x2="136.5" y2="85" gradientUnits="userSpaceOnUse">
<stop stop-color="#009BFB"/>
<stop offset="1" stop-color="#1D3FA0"/>
</linearGradient>
<linearGradient id="paint1_linear_2002_113" x1="68.9905" y1="71.6798" x2="104.108" y2="71.6798" gradientUnits="userSpaceOnUse">
<stop stop-color="#009BFB"/>
<stop offset="1" stop-color="#1D3FA0"/>
</linearGradient>
<linearGradient id="paint2_linear_2002_113" x1="55.6206" y1="101.348" x2="117.38" y2="101.348" gradientUnits="userSpaceOnUse">
<stop stop-color="#009BFB"/>
<stop offset="1" stop-color="#1D3FA0"/>
</linearGradient>
<linearGradient id="paint3_linear_2002_113" x1="35.4767" y1="3.67169" x2="98.8585" y2="193.238" gradientUnits="userSpaceOnUse">
<stop stop-color="#009BFB"/>
<stop offset="0.507204" stop-color="#009BFB" stop-opacity="0.415042"/>
<stop offset="1" stop-color="#009BFB" stop-opacity="0.01"/>
</linearGradient>
<linearGradient id="paint4_linear_2002_113" x1="41.7783" y1="13.9774" x2="85.5073" y2="188.2" gradientUnits="userSpaceOnUse">
<stop stop-color="#009BFB"/>
<stop offset="0.507204" stop-color="#009BFB" stop-opacity="0.415042"/>
<stop offset="1" stop-color="#009BFB" stop-opacity="0.01"/>
</linearGradient>
<clipPath id="clip0_2002_113">
<rect width="62" height="62" fill="white" transform="translate(55.5 54)"/>
</clipPath>
</defs>
</svg>
