<svg width="171" height="171" viewBox="0 0 171 171" fill="none" xmlns="http://www.w3.org/2000/svg">
<rect x="36" y="35.5" width="99" height="99" rx="49.5" fill="white"/>
<rect x="36" y="35.5" width="99" height="99" rx="49.5" stroke="url(#paint0_linear_2002_114)"/>
<path d="M74.2392 92.8193L74.001 91.957C75.0189 91.8168 76.0323 91.848 77.0051 92.0318L77.0109 92.0526L74.2392 92.8193ZM74.5921 93.7593L77.1909 93.0404C77.1893 93.0583 77.1875 93.0762 77.1853 93.0941C77.1621 93.2815 77.1023 93.4625 77.0092 93.6268C76.9161 93.7911 76.7916 93.9354 76.6427 94.0516L76.9503 94.4458L76.6427 94.0516C76.4938 94.1677 76.3235 94.2534 76.1416 94.3038L76.2749 94.7857L76.1416 94.3038C75.9596 94.3541 75.7694 94.3681 75.582 94.345C75.3946 94.3218 75.2136 94.262 75.0493 94.1689C74.885 94.0758 74.7407 93.9513 74.6245 93.8024C74.6135 93.7882 74.6027 93.7738 74.5921 93.7593ZM74.0873 94.6931C74.1365 94.7395 74.1876 94.7837 74.2405 94.8258C74.2026 94.832 74.1647 94.8384 74.1268 94.8453L74.0873 94.6931ZM71.7178 72.8923L76.7121 90.971C75.7397 90.8341 74.7369 90.8341 73.7326 90.9855L68.9461 73.6591L71.7178 72.8923ZM78.1207 92.3146C80.1863 92.9762 81.9851 94.3453 83.1274 96.2198L82.0985 96.4872L81.6143 96.6131L81.7404 97.0972L82.104 98.4929L81.1706 98.7511C80.4857 96.8984 78.9203 95.5258 77.0436 94.9894C77.1175 94.9436 77.189 94.8937 77.2579 94.84C77.5103 94.643 77.7214 94.3983 77.8792 94.1198C78.0371 93.8412 78.1385 93.5343 78.1777 93.2166C78.1963 93.066 78.2008 92.9144 78.1912 92.7637L78.241 92.7499L78.1207 92.3146ZM81.437 99.715L82.3561 99.4607L82.7169 100.846L82.8429 101.329L83.3266 101.203L84.4115 100.921C84.352 104.665 81.8551 108.056 78.1048 109.245L77.3809 106.459C80.2865 105.462 81.9724 102.581 81.437 99.715ZM76.4131 106.71L77.137 109.496C72.6201 110.419 68.0506 107.897 66.5907 103.573L69.3693 102.804C70.3899 105.565 73.3654 107.26 76.4131 106.71ZM69.1029 101.84L66.3244 102.609C65.3553 98.1366 68.0322 93.7085 72.4351 92.3131L73.1589 95.0969C70.2534 96.0938 68.5675 98.9749 69.1029 101.84ZM71.43 71.9344L68.6446 72.7049C68.2835 71.8856 67.6087 71.2135 66.7439 70.8446L67.513 68.0574C68.4088 68.3768 69.2257 68.8897 69.9043 69.5619C70.5818 70.233 71.1019 71.0434 71.43 71.9344ZM66.5531 67.7739L65.7845 70.5456L62.3439 69.5911L63.1145 66.8214L66.5531 67.7739ZM62.1293 66.6316L61.402 69.2458C61.3839 69.2331 61.366 69.2201 61.3484 69.2066C61.1974 69.0907 61.0709 68.946 60.9762 68.7809C60.8816 68.6158 60.8207 68.4335 60.797 68.2446C60.7734 68.0558 60.7875 67.8641 60.8385 67.6808C60.8895 67.4974 60.9764 67.326 61.0942 67.1765C61.212 67.027 61.3583 66.9023 61.5246 66.8098C61.6909 66.7173 61.874 66.6587 62.0631 66.6375C62.0851 66.635 62.1072 66.6331 62.1293 66.6316ZM82.8342 97.3292L83.61 97.1276C83.7367 97.4039 83.8501 97.6891 83.9492 97.9825L83.0679 98.2263L82.8342 97.3292ZM83.5586 100.11L83.3201 99.1941L84.2152 98.9465C84.2841 99.2648 84.3344 99.5829 84.3671 99.8998L83.5586 100.11ZM107.059 93.8994C107.037 93.9152 107.015 93.9303 106.993 93.9447L106.306 91.3005C106.332 91.3022 106.358 91.3045 106.384 91.3076C106.575 91.33 106.759 91.3905 106.926 91.4854C107.093 91.5803 107.239 91.7078 107.356 91.8602C107.473 92.0126 107.558 92.1869 107.607 92.3728C107.655 92.5588 107.666 92.7525 107.638 92.9426C107.611 93.1327 107.545 93.3153 107.446 93.4797L107.873 93.7386L107.446 93.4797C107.346 93.644 107.215 93.7867 107.059 93.8994ZM84.5917 96.8724L105.318 91.4848L106.042 94.2649L85.3454 99.6454C85.307 99.3243 85.2523 99.002 85.1805 98.6794L85.1927 98.6761L85.0599 98.1951C85.0598 98.1949 85.0598 98.1947 85.0597 98.1945L85.0596 98.1943L84.9266 97.7121L84.9144 97.7155C84.8189 97.4271 84.7111 97.1459 84.5917 96.8724Z" fill="url(#paint1_linear_2002_114)" stroke="url(#paint2_linear_2002_114)"/>
<path d="M79.2095 76.5525C77.9566 72.0187 77.3314 69.7506 78.3958 67.9655C79.4575 66.1778 81.7954 65.5707 86.4713 64.354L91.4313 63.0675C96.1071 61.8533 98.445 61.2436 100.287 62.2744C102.129 63.3077 102.757 65.5733 104.007 70.1096L105.337 74.9198C106.59 79.4536 107.218 81.7217 106.154 83.5094C105.089 85.2945 102.751 85.9041 98.0756 87.1183L93.1156 88.4074C88.4398 89.6216 86.1019 90.2286 84.2599 89.1979C82.418 88.1646 81.7929 85.899 80.5399 81.3652L79.2095 76.5525Z" stroke="url(#paint3_linear_2002_114)" stroke-width="4"/>
<path d="M170.849 85.3368C170.849 132.383 132.637 170.522 85.5 170.522C38.363 170.522 0.151464 132.383 0.151464 85.3368C0.151464 38.2905 38.363 0.151464 85.5 0.151464C132.637 0.151464 170.849 38.2905 170.849 85.3368Z" stroke="url(#paint4_linear_2002_114)" stroke-width="0.302928"/>
<path d="M160.08 85.3368C160.08 126.435 126.69 159.753 85.5009 159.753C44.3115 159.753 10.9215 126.435 10.9215 85.3368C10.9215 44.2381 44.3115 10.9205 85.5009 10.9205C126.69 10.9205 160.08 44.2381 160.08 85.3368Z" stroke="url(#paint5_linear_2002_114)" stroke-width="0.302928"/>
<defs>
<linearGradient id="paint0_linear_2002_114" x1="35.5" y1="85" x2="135.5" y2="85" gradientUnits="userSpaceOnUse">
<stop stop-color="#009BFB"/>
<stop offset="1" stop-color="#1D3FA0"/>
</linearGradient>
<linearGradient id="paint1_linear_2002_114" x1="60.2859" y1="88.157" x2="108.153" y2="88.157" gradientUnits="userSpaceOnUse">
<stop stop-color="#009BFB"/>
<stop offset="1" stop-color="#1D3FA0"/>
</linearGradient>
<linearGradient id="paint2_linear_2002_114" x1="60.2859" y1="88.157" x2="108.153" y2="88.157" gradientUnits="userSpaceOnUse">
<stop stop-color="#009BFB"/>
<stop offset="1" stop-color="#1D3FA0"/>
</linearGradient>
<linearGradient id="paint3_linear_2002_114" x1="77.8535" y1="75.7365" x2="106.695" y2="75.7365" gradientUnits="userSpaceOnUse">
<stop stop-color="#009BFB"/>
<stop offset="1" stop-color="#1D3FA0"/>
</linearGradient>
<linearGradient id="paint4_linear_2002_114" x1="35.4767" y1="3.67169" x2="98.8585" y2="193.238" gradientUnits="userSpaceOnUse">
<stop stop-color="#009BFB"/>
<stop offset="0.507204" stop-color="#009BFB" stop-opacity="0.415042"/>
<stop offset="1" stop-color="#009BFB" stop-opacity="0.01"/>
</linearGradient>
<linearGradient id="paint5_linear_2002_114" x1="41.7783" y1="13.9774" x2="85.5073" y2="188.2" gradientUnits="userSpaceOnUse">
<stop stop-color="#009BFB"/>
<stop offset="0.507204" stop-color="#009BFB" stop-opacity="0.415042"/>
<stop offset="1" stop-color="#009BFB" stop-opacity="0.01"/>
</linearGradient>
</defs>
</svg>
