<svg width="171" height="171" viewBox="0 0 171 171" fill="none" xmlns="http://www.w3.org/2000/svg">
<rect x="36.5" y="35.5" width="99" height="99" rx="49.5" fill="white"/>
<rect x="36.5" y="35.5" width="99" height="99" rx="49.5" stroke="url(#paint0_linear_525_1751)"/>
<path d="M91.8124 57.9351L90.4194 59.2681L79.643 70.1064L78.2499 71.4375L76.3124 73.375L71.893 77.8564L70.8022 78.9453L71.6508 80.2783C71.6508 80.2783 72.8327 82.0937 73.7704 84.0913C74.2393 85.0911 74.6617 86.1509 74.7973 86.8774C74.867 87.2397 74.8748 87.4587 74.8593 87.542C74.6462 87.7086 72.0964 89.7314 69.0468 92.2056C65.8693 94.7786 62.4922 97.4872 61.1147 98.8647C59.6673 100.321 58.855 102.292 58.855 104.345C58.855 106.398 59.6673 108.369 61.1147 109.825C64.112 112.821 69.0003 112.799 72.0131 109.825H72.0732C73.4585 108.44 76.2369 105.117 78.7963 101.953C80.376 100 81.9499 98.0428 83.518 96.0806C83.5102 96.0883 83.6013 95.9585 84.3046 96.0806C85.0079 96.2007 86.0077 96.5649 86.9687 97.0493C88.2502 97.7091 89.4842 98.4575 90.6615 99.2891L91.9945 100.258L93.1435 99.1069L97.6249 94.6875L99.5624 92.75L100.895 91.3569L111.732 80.5806L113.065 79.1875L111.732 77.7944L93.2074 59.27L91.8124 57.9351ZM94.3564 68.0469C94.7245 68.0779 95.0151 68.2212 95.2631 68.4712C96.2551 69.469 94.8097 73.3537 94.1142 75.0102C93.4167 76.6765 93.6356 77.9766 94.5365 78.8852C96.073 80.4352 100.136 76.7889 101.864 78.521C103.581 80.2551 100.456 83.9402 101.56 85.0601L101.622 85.1221L98.1694 88.5708L82.4272 72.8306L85.0912 70.1665C85.13 70.2111 85.1687 70.2421 85.2133 70.2866C86.5308 71.6119 89.2317 70.3467 90.3593 69.6201C91.6923 68.7676 93.25 67.9558 94.3564 68.0469ZM79.643 75.6147L95.3852 91.3569L94.8388 91.9033L91.5102 95.2939C90.7604 94.7786 90.2372 94.3542 88.724 93.5986C87.5674 93.0232 86.3099 92.4942 84.9711 92.2656C83.6323 92.037 81.935 92.0912 80.7319 93.2944L80.6718 93.4165L80.6117 93.4766C80.6117 93.4766 78.3255 96.3751 75.768 99.5312C73.2105 102.687 70.2422 106.206 69.349 107.099C67.8204 108.63 65.4295 108.63 63.9008 107.099C63.538 106.744 63.2498 106.32 63.0531 105.853C62.8563 105.385 62.7549 104.882 62.7549 104.375C62.7549 103.868 62.8563 103.365 63.0531 102.897C63.2498 102.43 63.538 102.006 63.9008 101.651C64.792 100.758 68.3125 97.7914 71.4687 95.2319C74.6249 92.6744 77.5234 90.3882 77.5234 90.3882L77.5834 90.3281L77.7055 90.2681C78.9319 89.0474 78.8564 87.4296 78.6142 86.1509C78.37 84.8721 77.8256 83.6224 77.2812 82.4561C76.5469 80.8828 76.1148 80.3074 75.6459 79.5498L79.0966 76.1592L79.643 75.6147ZM67.1093 101.771C66.5471 101.771 66.008 101.994 65.6105 102.392C65.213 102.789 64.9897 103.328 64.9897 103.891C64.9897 104.453 65.213 104.992 65.6105 105.389C66.008 105.787 66.5471 106.01 67.1093 106.01C67.6715 106.01 68.2106 105.787 68.6081 105.389C69.0056 104.992 69.2289 104.453 69.2289 103.891C69.2289 103.328 69.0056 102.789 68.6081 102.392C68.2106 101.994 67.6715 101.771 67.1093 101.771Z" fill="url(#paint1_linear_525_1751)"/>
<path d="M170.849 85.3368C170.849 132.383 132.637 170.522 85.5 170.522C38.363 170.522 0.151464 132.383 0.151464 85.3368C0.151464 38.2905 38.363 0.151464 85.5 0.151464C132.637 0.151464 170.849 38.2905 170.849 85.3368Z" stroke="url(#paint2_linear_525_1751)" stroke-width="0.302928"/>
<path d="M160.08 85.3368C160.08 126.435 126.69 159.753 85.5009 159.753C44.3115 159.753 10.9215 126.435 10.9215 85.3368C10.9215 44.2381 44.3115 10.9205 85.5009 10.9205C126.69 10.9205 160.08 44.2381 160.08 85.3368Z" stroke="url(#paint3_linear_525_1751)" stroke-width="0.302928"/>
<defs>
<linearGradient id="paint0_linear_525_1751" x1="36" y1="85" x2="136" y2="85" gradientUnits="userSpaceOnUse">
<stop stop-color="#009BFB"/>
<stop offset="1" stop-color="#1D3FA0"/>
</linearGradient>
<linearGradient id="paint1_linear_525_1751" x1="58.855" y1="84.9994" x2="113.065" y2="84.9994" gradientUnits="userSpaceOnUse">
<stop stop-color="#009BFB"/>
<stop offset="1" stop-color="#1D3FA0"/>
</linearGradient>
<linearGradient id="paint2_linear_525_1751" x1="35.4767" y1="3.67169" x2="98.8585" y2="193.238" gradientUnits="userSpaceOnUse">
<stop stop-color="#009BFB"/>
<stop offset="0.507204" stop-color="#009BFB" stop-opacity="0.415042"/>
<stop offset="1" stop-color="#009BFB" stop-opacity="0.01"/>
</linearGradient>
<linearGradient id="paint3_linear_525_1751" x1="41.7783" y1="13.9774" x2="85.5073" y2="188.2" gradientUnits="userSpaceOnUse">
<stop stop-color="#009BFB"/>
<stop offset="0.507204" stop-color="#009BFB" stop-opacity="0.415042"/>
<stop offset="1" stop-color="#009BFB" stop-opacity="0.01"/>
</linearGradient>
</defs>
</svg>
