<svg width="32.000000" height="32.000000" viewBox="0 0 32 32" fill="none" xmlns="http://www.w3.org/2000/svg" xmlns:xlink="http://www.w3.org/1999/xlink">
	<desc>
			Created with Pixso.
	</desc>
	<defs>
		<clipPath id="clip101_522">
			<rect id="fluent:ios-arrow-24-filled" rx="0.000000" width="31.000000" height="31.000000" transform="matrix(-1 0 0 1 32.5 0.5)" fill="white" fill-opacity="0"/>
		</clipPath>
		<linearGradient x1="28.667114" y1="16.007664" x2="14.654080" y2="16.007664" id="paint_linear_101_523_0" gradientUnits="userSpaceOnUse">
			<stop stop-color="#009BFB"/>
			<stop offset="1.000000" stop-color="#1D3FA0"/>
		</linearGradient>
	</defs>
	<rect id="fluent:ios-arrow-24-filled" rx="0.000000" width="31.000000" height="31.000000" transform="matrix(-1 0 0 1 32.5 0.5)" fill="#FFFFFF" fill-opacity="0"/>
	<g clip-path="url(#clip101_522)">
		<path id="Vector" d="M15.03 4.91C14.91 4.78 14.81 4.63 14.75 4.47C14.69 4.31 14.66 4.13 14.66 3.96C14.67 3.78 14.71 3.61 14.78 3.45C14.85 3.29 14.95 3.15 15.08 3.03C15.21 2.91 15.36 2.81 15.52 2.75C15.68 2.69 15.86 2.66 16.03 2.66C16.21 2.67 16.38 2.71 16.54 2.78C16.7 2.85 16.84 2.95 16.96 3.08L28.3 15.08C28.53 15.33 28.66 15.65 28.66 16C28.66 16.34 28.53 16.66 28.3 16.91L16.96 28.91C16.84 29.04 16.7 29.15 16.54 29.22C16.38 29.3 16.21 29.34 16.03 29.34C15.85 29.35 15.68 29.32 15.51 29.26C15.35 29.2 15.2 29.1 15.07 28.98C14.94 28.86 14.84 28.71 14.76 28.55C14.69 28.39 14.65 28.22 14.65 28.04C14.65 27.86 14.68 27.69 14.74 27.52C14.81 27.36 14.9 27.21 15.03 27.08L25.5 16L15.03 4.91Z" fill="url(#paint_linear_101_523_0)" fill-opacity="1.000000" fill-rule="nonzero"/>
	</g>
</svg>
