<svg width="26.400024" height="22.720001" viewBox="0 0 26.4 22.72" fill="none" xmlns="http://www.w3.org/2000/svg" xmlns:xlink="http://www.w3.org/1999/xlink">
	<desc>
			Created with Pixso.
	</desc>
	<defs/>
	<g opacity="0.200000">
		<path id="Vector" d="M25.6 8.32C25.6 7.89 25.43 7.48 25.13 7.18C24.83 6.88 24.42 6.72 24 6.72L7.5 6.72C7.08 6.72 6.67 6.88 6.37 7.18C6.07 7.48 5.9 7.89 5.9 8.32C5.9 8.74 6.07 9.15 6.37 9.45C6.67 9.75 7.08 9.92 7.5 9.92L24 9.92C24.42 9.92 24.83 9.75 25.13 9.45C25.43 9.15 25.6 8.74 25.6 8.32ZM25.6 1.92C25.6 1.49 25.43 1.08 25.13 0.78C24.83 0.48 24.42 0.32 24 0.32L1.59 0.32C1.17 0.32 0.76 0.48 0.46 0.78C0.16 1.08 0 1.49 0 1.92C0 2.34 0.16 2.75 0.46 3.05C0.76 3.35 1.17 3.52 1.59 3.52L24 3.52C24.42 3.52 24.83 3.35 25.13 3.05C25.43 2.75 25.6 2.34 25.6 1.92ZM25.6 14.72C25.6 14.29 25.43 13.88 25.13 13.58C24.83 13.28 24.42 13.12 24 13.12L1.59 13.12C1.17 13.12 0.76 13.28 0.46 13.58C0.16 13.88 0 14.29 0 14.72C0 15.14 0.16 15.55 0.46 15.85C0.76 16.15 1.17 16.32 1.59 16.32L24 16.32C24.42 16.32 24.83 16.15 25.13 15.85C25.43 15.55 25.6 15.14 25.6 14.72ZM25.6 21.12C25.6 20.69 25.43 20.28 25.13 19.98C24.83 19.68 24.42 19.52 24 19.52L7.5 19.52C7.08 19.52 6.67 19.68 6.37 19.98C6.07 20.28 5.9 20.69 5.9 21.12C5.9 21.54 6.07 21.95 6.37 22.25C6.67 22.55 7.08 22.72 7.5 22.72L24 22.72C24.42 22.72 24.83 22.55 25.13 22.25C25.43 21.95 25.6 21.54 25.6 21.12Z" fill="#FFFFFF" fill-opacity="1.000000" fill-rule="evenodd"/>
	</g>
	<path id="Vector" d="M26.4 7.2C26.4 6.98 26.31 6.78 26.16 6.63C26.01 6.48 25.81 6.4 25.6 6.4L7.5 6.4C7.29 6.4 7.09 6.48 6.94 6.63C6.79 6.78 6.7 6.98 6.7 7.2C6.7 7.41 6.79 7.61 6.94 7.76C7.09 7.91 7.29 8 7.5 8L25.6 8C25.81 8 26.01 7.91 26.16 7.76C26.31 7.61 26.4 7.41 26.4 7.2ZM26.4 0.8C26.4 0.58 26.31 0.38 26.16 0.23C26.01 0.08 25.81 0 25.6 0L1.59 0C1.38 0 1.18 0.08 1.03 0.23C0.88 0.38 0.8 0.58 0.8 0.8C0.8 1.01 0.88 1.21 1.03 1.36C1.18 1.51 1.38 1.6 1.59 1.6L25.6 1.6C25.81 1.6 26.01 1.51 26.16 1.36C26.31 1.21 26.4 1.01 26.4 0.8ZM26.4 13.6C26.4 13.38 26.31 13.18 26.16 13.03C26.01 12.88 25.81 12.8 25.6 12.8L1.59 12.8C1.38 12.8 1.18 12.88 1.03 13.03C0.88 13.18 0.8 13.38 0.8 13.6C0.8 13.81 0.88 14.01 1.03 14.16C1.18 14.31 1.38 14.4 1.59 14.4L25.6 14.4C25.81 14.4 26.01 14.31 26.16 14.16C26.31 14.01 26.4 13.81 26.4 13.6ZM26.4 20C26.4 19.78 26.31 19.58 26.16 19.43C26.01 19.28 25.81 19.2 25.6 19.2L7.5 19.2C7.29 19.2 7.09 19.28 6.94 19.43C6.79 19.58 6.7 19.78 6.7 20C6.7 20.21 6.79 20.41 6.94 20.56C7.09 20.71 7.29 20.8 7.5 20.8L25.6 20.8C25.81 20.8 26.01 20.71 26.16 20.56C26.31 20.41 26.4 20.21 26.4 20Z" fill="#FFFFFF" fill-opacity="1.000000" fill-rule="evenodd"/>
</svg>
