<svg width="24" height="24" viewBox="0 0 24 24" fill="none" xmlns="http://www.w3.org/2000/svg">
<path fill-rule="evenodd" clip-rule="evenodd" d="M16.5 20C19.5433 20 22 18.7143 22 16.7857V4.57143C22 3.28571 19.5556 2 16.5 2C13.4444 2 11 3.28571 11 4.57143V9.07143C12.43 9.70143 13.6522 10.7557 14.52 12.0929C15.1189 12.2163 15.7789 12.2844 16.5 12.2844C18.1011 12.2844 19.4333 11.9489 20.3867 11.4024C20.522 11.3242 20.6537 11.2392 20.7814 11.1479V12.9221C20.7814 13.2243 20.5529 13.6936 19.8012 14.1256C19.0728 14.5434 17.9557 14.8507 16.5012 14.8507C16.2103 14.8507 15.9333 14.8391 15.6701 14.816C15.7679 15.2386 15.8331 15.6714 15.8657 16.1146C16.0718 16.1266 16.2837 16.1326 16.5012 16.1326C18.1023 16.1326 19.4346 15.797 20.3879 15.2506C20.5232 15.1723 20.655 15.0874 20.7827 14.996V16.7703C20.7827 17.0737 20.6006 17.5237 19.8159 17.9686C19.0434 18.4057 17.8848 18.6989 16.5037 18.6989C16.2226 18.6989 15.9504 18.6869 15.6872 18.6629C15.5933 19.0902 15.467 19.509 15.3096 19.9151C15.6941 19.9606 16.0918 19.9833 16.5024 19.9833L16.5 20ZM19.8 10.28C20.5517 9.848 20.7802 9.37871 20.7802 9.07657V7.30229C20.6539 7.39314 20.5223 7.478 20.3854 7.55686C19.4346 8.10329 18.0999 8.43886 16.4988 8.43886C14.8977 8.43886 13.5654 8.10329 12.6121 7.55686C12.4768 7.47861 12.345 7.39365 12.2173 7.30229V9.07657C12.2173 9.37871 12.4459 9.848 13.1976 10.2787C13.926 10.6966 15.0431 11.0039 16.4976 11.0039C17.952 11.0039 19.0642 10.6966 19.7976 10.2787L19.8 10.28ZM12.2222 5.21429C12.2222 4.844 12.375 4.48786 12.6598 4.27057C12.815 4.15229 12.9837 4.034 13.1169 3.96971C13.4506 3.80771 15.1213 3.28443 16.5024 3.28443C17.8836 3.28443 19.0813 3.57629 19.888 3.96971C20.0396 4.043 20.207 4.15743 20.3549 4.27057C20.6372 4.48529 20.7827 4.83886 20.7827 5.20529V5.213C20.7827 5.51514 20.5541 5.98443 19.8024 6.41643C19.074 6.83429 17.9569 7.14157 16.5024 7.14157C15.048 7.14157 13.9358 6.833 13.2024 6.41643C12.4508 5.98571 12.2222 5.51514 12.2222 5.21429Z" fill="url(#paint0_linear_525_297)"/>
<path fill-rule="evenodd" clip-rule="evenodd" d="M13 16.5C13 19.5433 10.5433 22 7.5 22C4.45667 22 2 19.5433 2 16.5C2 13.4567 4.45667 11 7.5 11C10.5433 11 13 13.4567 13 16.5ZM11.7778 16.5C11.7778 18.8589 9.85889 20.7778 7.5 20.7778C5.14111 20.7778 3.22222 18.8589 3.22222 16.5C3.22222 14.1411 5.14111 12.2222 7.5 12.2222C9.85889 12.2222 11.7778 14.1411 11.7778 16.5Z" fill="url(#paint1_linear_525_297)"/>
<defs>
<linearGradient id="paint0_linear_525_297" x1="11" y1="11" x2="22" y2="11" gradientUnits="userSpaceOnUse">
<stop stop-color="#009BFB"/>
<stop offset="1" stop-color="#1D3FA0"/>
</linearGradient>
<linearGradient id="paint1_linear_525_297" x1="2" y1="16.5" x2="13" y2="16.5" gradientUnits="userSpaceOnUse">
<stop stop-color="#009BFB"/>
<stop offset="1" stop-color="#1D3FA0"/>
</linearGradient>
</defs>
</svg>
