<svg width="24" height="24" viewBox="0 0 24 24" fill="none" xmlns="http://www.w3.org/2000/svg">
<path fill-rule="evenodd" clip-rule="evenodd" d="M18.4028 4.88086C18.5938 4.88086 18.7769 4.95672 18.9119 5.09174C19.047 5.22677 19.1228 5.4099 19.1228 5.60086V12.0009C19.1228 12.1918 19.047 12.3749 18.9119 12.51C18.7769 12.645 18.5938 12.7209 18.4028 12.7209C18.2119 12.7209 18.0287 12.645 17.8937 12.51C17.7587 12.3749 17.6828 12.1918 17.6828 12.0009V7.33846L7.34041 17.6809H12.0028C12.1938 17.6809 12.3769 17.7567 12.5119 17.8917C12.647 18.0268 12.7228 18.2099 12.7228 18.4009C12.7228 18.5918 12.647 18.775 12.5119 18.91C12.3769 19.045 12.1938 19.1209 12.0028 19.1209H5.60281C5.41186 19.1209 5.22872 19.045 5.0937 18.91C4.95867 18.775 4.88281 18.5918 4.88281 18.4009V12.0009C4.88281 11.9063 4.90144 11.8127 4.93762 11.7253C4.9738 11.638 5.02684 11.5586 5.0937 11.4917C5.16055 11.4249 5.23993 11.3718 5.32728 11.3357C5.41463 11.2995 5.50826 11.2809 5.60281 11.2809C5.69736 11.2809 5.79099 11.2995 5.87834 11.3357C5.9657 11.3718 6.04507 11.4249 6.11193 11.4917C6.17879 11.5586 6.23182 11.638 6.26801 11.7253C6.30419 11.8127 6.32281 11.9063 6.32281 12.0009V16.6633L16.6652 6.32086H12.0028C11.8119 6.32086 11.6287 6.245 11.4937 6.10998C11.3587 5.97495 11.2828 5.79182 11.2828 5.60086C11.2828 5.4099 11.3587 5.22677 11.4937 5.09174C11.6287 4.95672 11.8119 4.88086 12.0028 4.88086H18.4028Z" fill="url(#paint0_linear_525_291)"/>
<defs>
<linearGradient id="paint0_linear_525_291" x1="4.88281" y1="12.0009" x2="19.1228" y2="12.0009" gradientUnits="userSpaceOnUse">
<stop stop-color="#009BFB"/>
<stop offset="1" stop-color="#1D3FA0"/>
</linearGradient>
</defs>
</svg>
