<svg width="24.000000" height="24.000000" viewBox="0 0 24 24" fill="none" xmlns="http://www.w3.org/2000/svg" xmlns:xlink="http://www.w3.org/1999/xlink">
	<desc>
			Created with Pixso.
	</desc>
	<defs>
		<clipPath id="clip101_438">
			<rect id="watch" rx="0.000000" width="23.000000" height="23.000000" transform="translate(0.500000 0.500000)" fill="white" fill-opacity="0"/>
		</clipPath>
		<linearGradient x1="5.000000" y1="12.000000" x2="19.000000" y2="12.000000" id="paint_linear_101_439_0" gradientUnits="userSpaceOnUse">
			<stop stop-color="#009BFB"/>
			<stop offset="1.000000" stop-color="#1D3FA0"/>
		</linearGradient>
		<linearGradient x1="12.000000" y1="11.250000" x2="13.500000" y2="11.250000" id="paint_linear_101_440_0" gradientUnits="userSpaceOnUse">
			<stop stop-color="#009BFB"/>
			<stop offset="1.000000" stop-color="#1D3FA0"/>
		</linearGradient>
		<linearGradient x1="7.479980" y1="12.000016" x2="16.529982" y2="12.000016" id="paint_linear_101_441_0" gradientUnits="userSpaceOnUse">
			<stop stop-color="#009BFB"/>
			<stop offset="1.000000" stop-color="#1D3FA0"/>
		</linearGradient>
	</defs>
	<rect id="watch" rx="0.000000" width="23.000000" height="23.000000" transform="translate(0.500000 0.500000)" fill="#FFFFFF" fill-opacity="0"/>
	<g clip-path="url(#clip101_438)">
		<path id="Vector" d="M12 19C8.13 19 5 15.86 5 12C5 8.13 8.13 5 12 5C15.86 5 19 8.13 19 12C19 15.86 15.86 19 12 19Z" stroke="url(#paint_linear_101_439_0)" stroke-opacity="1.000000" stroke-width="2.000000" stroke-linejoin="round"/>
		<path id="Vector" d="M12 9L12 12L13.5 13.5" stroke="url(#paint_linear_101_440_0)" stroke-opacity="1.000000" stroke-width="2.000000" stroke-linejoin="round" stroke-linecap="round"/>
		<path id="Vector" d="M16.51 17.35L16.16 21.17C16.11 21.67 15.88 22.14 15.51 22.47C15.14 22.81 14.66 23 14.16 23L9.82 23C9.32 23 8.84 22.81 8.47 22.47C8.1 22.14 7.87 21.67 7.82 21.17L7.47 17.35M7.48 6.64L7.83 2.82C7.88 2.32 8.11 1.86 8.48 1.52C8.85 1.18 9.33 1 9.82 1L14.18 1C14.68 0.99 15.16 1.18 15.53 1.52C15.9 1.85 16.13 2.32 16.18 2.82L16.53 6.64" stroke="url(#paint_linear_101_441_0)" stroke-opacity="1.000000" stroke-width="2.000000" stroke-linejoin="round" stroke-linecap="round"/>
	</g>
</svg>
