<svg width="24.000000" height="24.000000" viewBox="0 0 24 24" fill="none" xmlns="http://www.w3.org/2000/svg" xmlns:xlink="http://www.w3.org/1999/xlink">
	<desc>
			Created with Pixso.
	</desc>
	<defs>
		<clipPath id="clip101_447">
			<rect id="users" rx="0.000000" width="23.000000" height="23.000000" transform="translate(0.500000 0.500000)" fill="white" fill-opacity="0"/>
		</clipPath>
		<linearGradient x1="1.000000" y1="18.000000" x2="17.000000" y2="18.000000" id="paint_linear_101_448_0" gradientUnits="userSpaceOnUse">
			<stop stop-color="#009BFB"/>
			<stop offset="1.000000" stop-color="#1D3FA0"/>
		</linearGradient>
		<linearGradient x1="5.000000" y1="7.000000" x2="13.000000" y2="7.000000" id="paint_linear_101_449_0" gradientUnits="userSpaceOnUse">
			<stop stop-color="#009BFB"/>
			<stop offset="1.000000" stop-color="#1D3FA0"/>
		</linearGradient>
		<linearGradient x1="20.000000" y1="18.064882" x2="23.000000" y2="18.064882" id="paint_linear_101_450_0" gradientUnits="userSpaceOnUse">
			<stop stop-color="#009BFB"/>
			<stop offset="1.000000" stop-color="#1D3FA0"/>
		</linearGradient>
		<linearGradient x1="16.000000" y1="7.004883" x2="19.007843" y2="7.004883" id="paint_linear_101_451_0" gradientUnits="userSpaceOnUse">
			<stop stop-color="#009BFB"/>
			<stop offset="1.000000" stop-color="#1D3FA0"/>
		</linearGradient>
	</defs>
	<rect id="users" rx="0.000000" width="23.000000" height="23.000000" transform="translate(0.500000 0.500000)" fill="#FFFFFF" fill-opacity="0"/>
	<g clip-path="url(#clip101_447)">
		<path id="Vector" d="M17 21L17 19C17 17.93 16.57 16.92 15.82 16.17C15.07 15.42 14.06 15 13 15L5 15C3.93 15 2.92 15.42 2.17 16.17C1.42 16.92 1 17.93 1 19L1 21" stroke="url(#paint_linear_101_448_0)" stroke-opacity="1.000000" stroke-width="2.000000" stroke-linejoin="round" stroke-linecap="round"/>
		<path id="Vector" d="M9 11C6.79 11 5 9.2 5 7C5 4.79 6.79 3 9 3C11.2 3 13 4.79 13 7C13 9.2 11.2 11 9 11Z" stroke="#313131" stroke-opacity="1.000000" stroke-width="2.000000" stroke-linejoin="round"/>
		<path id="Vector" d="M9 11C6.79 11 5 9.2 5 7C5 4.79 6.79 3 9 3C11.2 3 13 4.79 13 7C13 9.2 11.2 11 9 11Z" stroke="url(#paint_linear_101_449_0)" stroke-opacity="1.000000" stroke-width="2.000000" stroke-linejoin="round"/>
		<path id="Vector" d="M23 21L23 19C22.99 18.11 22.7 17.25 22.16 16.55C21.61 15.85 20.85 15.35 20 15.12" stroke="#313131" stroke-opacity="1.000000" stroke-width="2.000000" stroke-linejoin="round" stroke-linecap="round"/>
		<path id="Vector" d="M23 21L23 19C22.99 18.11 22.7 17.25 22.16 16.55C21.61 15.85 20.85 15.35 20 15.12" stroke="url(#paint_linear_101_450_0)" stroke-opacity="1.000000" stroke-width="2.000000" stroke-linejoin="round" stroke-linecap="round"/>
		<path id="Vector" d="M16 3.12C16.86 3.35 17.62 3.85 18.16 4.55C18.71 5.25 19 6.11 19 7C19 7.89 18.71 8.75 18.16 9.45C17.62 10.15 16.86 10.65 16 10.87" stroke="#313131" stroke-opacity="1.000000" stroke-width="2.000000" stroke-linejoin="round" stroke-linecap="round"/>
		<path id="Vector" d="M16 3.12C16.86 3.35 17.62 3.85 18.16 4.55C18.71 5.25 19 6.11 19 7C19 7.89 18.71 8.75 18.16 9.45C17.62 10.15 16.86 10.65 16 10.87" stroke="url(#paint_linear_101_451_0)" stroke-opacity="1.000000" stroke-width="2.000000" stroke-linejoin="round" stroke-linecap="round"/>
	</g>
</svg>
