<svg width="24.000000" height="24.000000" viewBox="0 0 24 24" fill="none" xmlns="http://www.w3.org/2000/svg" xmlns:xlink="http://www.w3.org/1999/xlink">
	<desc>
			Created with Pixso.
	</desc>
	<defs>
		<clipPath id="clip101_457">
			<rect id="famicons:pricetags-outline" rx="0.000000" width="23.000000" height="23.000000" transform="translate(0.500000 0.500000)" fill="white" fill-opacity="0"/>
		</clipPath>
		<linearGradient x1="0.750000" y1="11.250021" x2="20.250017" y2="11.250021" id="paint_linear_101_458_0" gradientUnits="userSpaceOnUse">
			<stop stop-color="#009BFB"/>
			<stop offset="1.000000" stop-color="#1D3FA0"/>
		</linearGradient>
		<linearGradient x1="15.000000" y1="5.250000" x2="18.000000" y2="5.250000" id="paint_linear_101_459_0" gradientUnits="userSpaceOnUse">
			<stop stop-color="#009BFB"/>
			<stop offset="1.000000" stop-color="#1D3FA0"/>
		</linearGradient>
		<linearGradient x1="10.781250" y1="13.124999" x2="23.250134" y2="13.124999" id="paint_linear_101_460_0" gradientUnits="userSpaceOnUse">
			<stop stop-color="#009BFB"/>
			<stop offset="1.000000" stop-color="#1D3FA0"/>
		</linearGradient>
	</defs>
	<rect id="famicons:pricetags-outline" rx="0.000000" width="23.000000" height="23.000000" transform="translate(0.500000 0.500000)" fill="#FFFFFF" fill-opacity="0"/>
	<g clip-path="url(#clip101_457)">
		<path id="Vector" d="M13.14 1.5C12.96 1.49 12.79 1.57 12.66 1.69L1.14 13.21C0.89 13.46 0.75 13.81 0.75 14.16C0.75 14.52 0.89 14.86 1.14 15.12L6.62 20.6C6.88 20.85 7.22 21 7.58 21C7.93 21 8.28 20.85 8.53 20.6L20.05 9.09C20.17 8.96 20.25 8.79 20.25 8.61L20.25 2.85C20.25 2.67 20.21 2.49 20.14 2.33C20.08 2.16 19.98 2.02 19.85 1.89C19.73 1.76 19.58 1.66 19.42 1.6C19.25 1.53 19.08 1.49 18.9 1.5L13.14 1.5Z" stroke="#34343F" stroke-opacity="1.000000" stroke-width="2.000000" stroke-linejoin="round"/>
		<path id="Vector" d="M13.14 1.5C12.96 1.49 12.79 1.57 12.66 1.69L1.14 13.21C0.89 13.46 0.75 13.81 0.75 14.16C0.75 14.52 0.89 14.86 1.14 15.12L6.62 20.6C6.88 20.85 7.22 21 7.58 21C7.93 21 8.28 20.85 8.53 20.6L20.05 9.09C20.17 8.96 20.25 8.79 20.25 8.61L20.25 2.85C20.25 2.67 20.21 2.49 20.14 2.33C20.08 2.16 19.98 2.02 19.85 1.89C19.73 1.76 19.58 1.66 19.42 1.6C19.25 1.53 19.08 1.49 18.9 1.5L13.14 1.5Z" stroke="url(#paint_linear_101_458_0)" stroke-opacity="1.000000" stroke-width="2.000000" stroke-linejoin="round"/>
		<path id="Vector" d="M16.5 6.75C16.2 6.75 15.91 6.66 15.66 6.49C15.42 6.33 15.22 6.09 15.11 5.82C15 5.55 14.97 5.24 15.02 4.95C15.08 4.66 15.22 4.39 15.43 4.18C15.64 3.97 15.91 3.83 16.2 3.77C16.49 3.72 16.79 3.75 17.07 3.86C17.34 3.97 17.58 4.16 17.74 4.41C17.91 4.66 18 4.95 18 5.25C18 5.64 17.84 6.02 17.56 6.31C17.27 6.59 16.89 6.75 16.5 6.75Z" fill="url(#paint_linear_101_459_0)" fill-opacity="1.000000" fill-rule="nonzero"/>
		<path id="Vector" d="M10.78 22.5L23.06 10.21C23.12 10.15 23.17 10.08 23.2 10C23.23 9.92 23.25 9.83 23.25 9.75L23.25 3.75" stroke="#34343F" stroke-opacity="1.000000" stroke-width="2.000000" stroke-linejoin="round" stroke-linecap="round"/>
		<path id="Vector" d="M10.78 22.5L23.06 10.21C23.12 10.15 23.17 10.08 23.2 10C23.23 9.92 23.25 9.83 23.25 9.75L23.25 3.75" stroke="url(#paint_linear_101_460_0)" stroke-opacity="1.000000" stroke-width="2.000000" stroke-linejoin="round" stroke-linecap="round"/>
	</g>
</svg>
