<svg width="16.895142" height="21.535645" viewBox="0 0 16.8951 21.5356" fill="none" xmlns="http://www.w3.org/2000/svg" xmlns:xlink="http://www.w3.org/1999/xlink">
	<desc>
			Created with Pixso.
	</desc>
	<defs>
		<linearGradient x1="0.000000" y1="10.767857" x2="16.895142" y2="10.767857" id="paint_linear_101_467_0" gradientUnits="userSpaceOnUse">
			<stop stop-color="#009BFB"/>
			<stop offset="1.000000" stop-color="#1D3FA0"/>
		</linearGradient>
	</defs>
	<path id="Vector" d="M3.11 21.53L13.78 21.53C15.86 21.53 16.89 20.49 16.89 18.39L16.89 3.15C16.89 1.06 15.86 0 13.78 0L3.11 0C1.04 0 0 1.06 0 3.15L0 18.39C0 20.49 1.04 21.53 3.11 21.53ZM3.19 19.91C2.15 19.91 1.61 19.36 1.61 18.36L1.61 3.18C1.61 2.18 2.15 1.61 3.2 1.61L13.7 1.61C14.74 1.61 15.27 2.17 15.27 3.18L15.27 18.36C15.27 19.36 14.74 19.91 13.71 19.91L3.19 19.91ZM4.65 5.81L12.26 5.81C12.61 5.81 12.88 5.53 12.88 5.18C12.88 4.84 12.61 4.58 12.26 4.58L4.65 4.58C4.27 4.58 4.01 4.84 4.01 5.18C4.01 5.53 4.27 5.81 4.65 5.81ZM4.65 9.32L12.26 9.32C12.61 9.32 12.88 9.04 12.88 8.68C12.88 8.34 12.61 8.08 12.26 8.08L4.65 8.08C4.27 8.08 4.01 8.34 4.01 8.68C4.01 9.03 4.27 9.32 4.65 9.32ZM4.65 12.82L8.25 12.82C8.6 12.82 8.87 12.55 8.87 12.21C8.87 11.86 8.6 11.59 8.25 11.59L4.65 11.59C4.27 11.59 4.01 11.86 4.01 12.21C4.01 12.55 4.27 12.82 4.65 12.82L4.65 12.82Z" fill="url(#paint_linear_101_467_0)" fill-opacity="1.000000" fill-rule="nonzero"/>
</svg>
