<svg width="70.000000" height="70.000000" viewBox="0 0 70 70" fill="none" xmlns="http://www.w3.org/2000/svg" xmlns:xlink="http://www.w3.org/1999/xlink">
	<desc>
			Created with Pixso.
	</desc>
	<defs>
		<clipPath id="clip525_776">
			<rect id="wi:time-1" rx="0.000000" width="23.000000" height="23.000000" transform="translate(23.500000 23.500000)" fill="white" fill-opacity="0"/>
		</clipPath>
		<clipPath id="clip525_775">
			<rect id="Icon" rx="34.500000" width="69.000000" height="69.000000" transform="translate(0.500000 0.500000)" fill="white" fill-opacity="0"/>
		</clipPath>
		<linearGradient x1="24.000000" y1="34.500000" x2="45.000000" y2="34.500000" id="paint_linear_525_777_0" gradientUnits="userSpaceOnUse">
			<stop stop-color="#009BFB"/>
			<stop offset="1.000000" stop-color="#1D3FA0"/>
		</linearGradient>
	</defs>
	<rect id="Icon" rx="34.500000" width="69.000000" height="69.000000" transform="translate(0.500000 0.500000)" fill="#FFFFFF" fill-opacity="1.000000"/>
	<g clip-path="url(#clip525_775)">
		<rect id="wi:time-1" rx="0.000000" width="23.000000" height="23.000000" transform="translate(23.500000 23.500000)" fill="#FFFFFF" fill-opacity="0"/>
		<g clip-path="url(#clip525_776)">
			<path id="Vector" d="M24 34.51C24 32.61 24.47 30.85 25.41 29.24C26.35 27.62 27.63 26.35 29.25 25.4C30.86 24.46 32.61 24 34.5 24C35.92 24 37.28 24.27 38.58 24.83C39.88 25.37 40.99 26.13 41.93 27.06C42.87 28 43.61 29.11 44.17 30.42C44.72 31.73 45 33.08 45 34.51C45 35.93 44.72 37.29 44.17 38.59C43.61 39.88 42.86 41 41.93 41.94C40.99 42.87 39.88 43.62 38.58 44.16C37.28 44.72 35.93 45 34.5 45C33.08 45 31.71 44.72 30.41 44.16C29.11 43.62 28 42.86 27.05 41.93C26.11 40.99 25.38 39.88 24.82 38.59C24.26 37.3 24 35.94 24 34.51ZM26.31 34.51C26.31 36.72 27.11 38.64 28.72 40.28C30.34 41.89 32.26 42.69 34.5 42.69C35.98 42.69 37.35 42.33 38.6 41.59C39.85 40.85 40.85 39.87 41.59 38.61C42.33 37.35 42.7 35.99 42.7 34.51C42.7 33.04 42.33 31.67 41.59 30.41C40.85 29.15 39.86 28.15 38.6 27.42C37.34 26.68 35.98 26.32 34.5 26.32C33.03 26.32 31.66 26.68 30.41 27.42C29.16 28.15 28.15 29.15 27.41 30.41C26.66 31.67 26.31 33.04 26.31 34.51ZM33.69 34.51L33.69 28.3C33.69 28.09 33.77 27.9 33.92 27.75C34.07 27.6 34.25 27.53 34.47 27.53C34.67 27.53 34.86 27.6 35.02 27.75C35.18 27.9 35.25 28.09 35.25 28.3L35.25 31.6L35.95 30.38C36.06 30.2 36.22 30.08 36.43 30.03C36.65 29.97 36.84 30 37.03 30.11C37.22 30.21 37.33 30.36 37.4 30.58C37.46 30.79 37.43 30.98 37.32 31.17L35.18 34.81C35.06 35.14 34.83 35.31 34.48 35.31C34.26 35.31 34.08 35.23 33.93 35.08C33.78 34.93 33.69 34.74 33.69 34.51Z" fill="url(#paint_linear_525_777_0)" fill-opacity="1.000000" fill-rule="nonzero"/>
		</g>
	</g>
	<rect id="Icon" rx="34.500000" width="69.000000" height="69.000000" transform="translate(0.500000 0.500000)" stroke="#A6AFB5" stroke-opacity="1.000000" stroke-width="1.000000"/>
</svg>
