<svg width="27.572266" height="29.284180" viewBox="0 0 27.5723 29.2842" fill="none" xmlns="http://www.w3.org/2000/svg" xmlns:xlink="http://www.w3.org/1999/xlink">
	<desc>
			Created with Pixso.
	</desc>
	<defs>
		<linearGradient x1="0.704590" y1="14.642017" x2="26.867737" y2="14.642017" id="paint_linear_525_1242_0" gradientUnits="userSpaceOnUse">
			<stop stop-color="#009BFB"/>
			<stop offset="1.000000" stop-color="#1D3FA0"/>
		</linearGradient>
	</defs>
	<path id="Vector" d="M19.43 26.83L23.09 26.83C23.8 26.83 24.48 26.55 24.98 26.05C25.48 25.55 25.76 24.87 25.76 24.16L25.76 21.44M1.09 22.77L1.09 24.16C1.09 24.87 1.37 25.55 1.87 26.05C2.37 26.55 3.05 26.83 3.76 26.83L8.89 26.83M8.89 2.16L3.76 2.16C3.05 2.16 2.37 2.44 1.87 2.94C1.37 3.44 1.09 4.12 1.09 4.83L1.09 6.94M17.97 2.16L23.09 2.16C23.8 2.16 24.48 2.44 24.98 2.94C25.48 3.44 25.76 4.12 25.76 4.83L25.76 6.94M12.65 0.86C12.38 0.7 12.06 0.66 11.76 0.74C11.47 0.82 11.21 1.01 11.06 1.28L0.86 18.95C0.7 19.22 0.66 19.54 0.74 19.84C0.82 20.14 1.01 20.39 1.28 20.55L14.91 28.42C15.18 28.57 15.5 28.61 15.8 28.53C16.1 28.46 16.35 28.26 16.51 27.99L26.71 10.32C26.86 10.05 26.9 9.73 26.82 9.43C26.74 9.14 26.55 8.88 26.28 8.73L12.65 0.86ZM20.26 11.28L11.25 6M21.43 14.89L9.94 8.26M20.11 17.19L8.62 10.56" stroke="url(#paint_linear_525_1242_0)" stroke-opacity="1.000000" stroke-width="1.400000" stroke-linejoin="round" stroke-linecap="round"/>
</svg>
