<svg width="32.000000" height="32.000000" viewBox="0 0 32 32" fill="none" xmlns="http://www.w3.org/2000/svg" xmlns:xlink="http://www.w3.org/1999/xlink">
	<desc>
			Created with Pixso.
	</desc>
	<defs>
		<clipPath id="clip525_1250">
			<rect id="fluent:money-24-regular" rx="0.000000" width="31.000000" height="31.000000" transform="translate(0.500000 0.500000)" fill="white" fill-opacity="0"/>
		</clipPath>
		<linearGradient x1="2.664062" y1="16.666014" x2="29.330725" y2="16.666014" id="paint_linear_525_1251_0" gradientUnits="userSpaceOnUse">
			<stop stop-color="#009BFB"/>
			<stop offset="1.000000" stop-color="#1D3FA0"/>
		</linearGradient>
	</defs>
	<rect id="fluent:money-24-regular" rx="0.000000" width="31.000000" height="31.000000" transform="translate(0.500000 0.500000)" fill="#FFFFFF" fill-opacity="0"/>
	<g clip-path="url(#clip525_1250)">
		<path id="Vector" d="M13.99 10.66C13.47 10.66 12.95 10.76 12.46 10.97C11.98 11.17 11.54 11.46 11.16 11.83C10.79 12.2 10.5 12.64 10.3 13.13C10.1 13.62 9.99 14.14 9.99 14.66C9.99 15.19 10.1 15.71 10.3 16.19C10.5 16.68 10.79 17.12 11.16 17.49C11.54 17.86 11.98 18.16 12.46 18.36C12.95 18.56 13.47 18.66 13.99 18.66C15.05 18.66 16.07 18.24 16.82 17.49C17.57 16.74 17.99 15.72 17.99 14.66C17.99 13.6 17.57 12.58 16.82 11.83C16.07 11.08 15.05 10.66 13.99 10.66ZM11.99 14.66C11.99 14.13 12.2 13.62 12.58 13.25C12.95 12.87 13.46 12.66 13.99 12.66C14.52 12.66 15.03 12.87 15.41 13.25C15.78 13.62 15.99 14.13 15.99 14.66C15.99 15.19 15.78 15.7 15.41 16.08C15.03 16.45 14.52 16.66 13.99 16.66C13.46 16.66 12.95 16.45 12.58 16.08C12.2 15.7 11.99 15.19 11.99 14.66ZM2.66 9.66C2.66 8.87 2.98 8.1 3.54 7.54C4.1 6.98 4.86 6.66 5.66 6.66L22.33 6.66C22.72 6.66 23.11 6.74 23.47 6.89C23.84 7.04 24.17 7.26 24.45 7.54C24.73 7.82 24.95 8.15 25.1 8.51C25.25 8.88 25.33 9.27 25.33 9.66L25.33 19.66C25.33 20.06 25.25 20.45 25.1 20.81C24.95 21.17 24.73 21.5 24.45 21.78C24.17 22.06 23.84 22.28 23.47 22.43C23.11 22.58 22.72 22.66 22.33 22.66L5.66 22.66C4.86 22.66 4.1 22.35 3.54 21.78C2.98 21.22 2.66 20.46 2.66 19.66L2.66 9.66ZM5.66 8.66C5.39 8.66 5.14 8.77 4.95 8.95C4.76 9.14 4.66 9.4 4.66 9.66L4.66 10.66L5.66 10.66C5.92 10.66 6.18 10.56 6.37 10.37C6.55 10.18 6.66 9.93 6.66 9.66L6.66 8.66L5.66 8.66ZM4.66 16.66L5.66 16.66C6.45 16.66 7.22 16.98 7.78 17.54C8.34 18.1 8.66 18.87 8.66 19.66L8.66 20.66L19.33 20.66L19.33 19.66C19.33 18.87 19.64 18.1 20.2 17.54C20.77 16.98 21.53 16.66 22.33 16.66L23.33 16.66L23.33 12.66L22.33 12.66C21.53 12.66 20.77 12.35 20.2 11.78C19.64 11.22 19.33 10.46 19.33 9.66L19.33 8.66L8.66 8.66L8.66 9.66C8.66 10.06 8.58 10.45 8.43 10.81C8.28 11.17 8.06 11.5 7.78 11.78C7.5 12.06 7.17 12.28 6.81 12.43C6.44 12.58 6.05 12.66 5.66 12.66L4.66 12.66L4.66 16.66ZM23.33 10.66L23.33 9.66C23.33 9.4 23.22 9.14 23.03 8.95C22.85 8.77 22.59 8.66 22.33 8.66L21.33 8.66L21.33 9.66C21.33 10.21 21.77 10.66 22.33 10.66L23.33 10.66ZM23.33 18.66L22.33 18.66C22.06 18.66 21.81 18.77 21.62 18.95C21.43 19.14 21.33 19.4 21.33 19.66L21.33 20.66L22.33 20.66C22.59 20.66 22.85 20.56 23.03 20.37C23.22 20.18 23.33 19.93 23.33 19.66L23.33 18.66ZM4.66 19.66C4.66 20.21 5.11 20.66 5.66 20.66L6.66 20.66L6.66 19.66C6.66 19.4 6.55 19.14 6.37 18.95C6.18 18.77 5.92 18.66 5.66 18.66L4.66 18.66L4.66 19.66ZM5.86 24.66C6.21 25.27 6.72 25.77 7.33 26.13C7.93 26.48 8.62 26.66 9.33 26.66L22.99 26.66C23.82 26.66 24.65 26.5 25.42 26.18C26.18 25.86 26.88 25.39 27.47 24.81C28.06 24.22 28.53 23.52 28.84 22.75C29.16 21.98 29.33 21.16 29.33 20.33L29.33 13.33C29.33 12.63 29.14 11.94 28.79 11.33C28.44 10.72 27.93 10.21 27.33 9.86L27.33 20.33C27.33 21.48 26.87 22.58 26.06 23.39C25.24 24.2 24.14 24.66 22.99 24.66L5.86 24.66Z" fill="url(#paint_linear_525_1251_0)" fill-opacity="1.000000" fill-rule="nonzero"/>
	</g>
</svg>
