<svg width="32.000000" height="32.000000" viewBox="0 0 32 32" fill="none" xmlns="http://www.w3.org/2000/svg" xmlns:xlink="http://www.w3.org/1999/xlink">
	<desc>
			Created with Pixso.
	</desc>
	<defs>
		<clipPath id="clip525_1259">
			<rect id="icon-park-outline:file-protection-one" rx="0.000000" width="31.000000" height="31.000000" transform="translate(0.500000 0.500000)" fill="white" fill-opacity="0"/>
		</clipPath>
		<linearGradient x1="5.335938" y1="15.999348" x2="26.669271" y2="15.999348" id="paint_linear_525_1261_0" gradientUnits="userSpaceOnUse">
			<stop stop-color="#009BFB"/>
			<stop offset="1.000000" stop-color="#1D3FA0"/>
		</linearGradient>
		<linearGradient x1="18.000000" y1="15.999350" x2="27.333332" y2="15.999350" id="paint_linear_525_1262_0" gradientUnits="userSpaceOnUse">
			<stop stop-color="#009BFB"/>
			<stop offset="1.000000" stop-color="#1D3FA0"/>
		</linearGradient>
	</defs>
	<rect id="icon-park-outline:file-protection-one" rx="0.000000" width="31.000000" height="31.000000" transform="translate(0.500000 0.500000)" fill="#FFFFFF" fill-opacity="0"/>
	<g clip-path="url(#clip525_1259)">
		<path id="Vector" d="M26.66 15.33L26.66 9.33L20.66 2.66L6.66 2.66C6.31 2.66 5.97 2.8 5.72 3.05C5.47 3.3 5.33 3.64 5.33 3.99L5.33 27.99C5.33 28.35 5.47 28.69 5.72 28.94C5.97 29.19 6.31 29.33 6.66 29.33L14.66 29.33" stroke="url(#paint_linear_525_1261_0)" stroke-opacity="1.000000" stroke-width="2.000000" stroke-linejoin="round" stroke-linecap="round"/>
		<path id="Vector" d="M22.66 18.66C22.66 18.66 27.33 20.08 27.33 20.79C27.33 26.48 22.66 29.33 22.66 29.33C22.66 29.33 18 26.48 18 20.79C18 20.08 22.66 18.66 22.66 18.66ZM20 2.66L20 9.33L26.66 9.33" stroke="url(#paint_linear_525_1262_0)" stroke-opacity="1.000000" stroke-width="2.000000" stroke-linejoin="round" stroke-linecap="round"/>
	</g>
</svg>
