<svg width="19.502228" height="21.502930" viewBox="0 0 19.5022 21.5029" fill="none" xmlns="http://www.w3.org/2000/svg" xmlns:xlink="http://www.w3.org/1999/xlink">
	<desc>
			Created with Pixso.
	</desc>
	<defs>
		<linearGradient x1="5.750000" y1="11.750000" x2="18.750000" y2="11.750000" id="paint_linear_101_543_0" gradientUnits="userSpaceOnUse">
			<stop stop-color="#009BFB"/>
			<stop offset="1.000000" stop-color="#1D3FA0"/>
		</linearGradient>
		<linearGradient x1="2.776978" y1="8.750000" x2="12.749977" y2="8.750000" id="paint_linear_101_544_0" gradientUnits="userSpaceOnUse">
			<stop stop-color="#009BFB"/>
			<stop offset="1.000000" stop-color="#1D3FA0"/>
		</linearGradient>
		<linearGradient x1="0.750000" y1="8.749999" x2="7.759000" y2="8.749999" id="paint_linear_101_545_0" gradientUnits="userSpaceOnUse">
			<stop stop-color="#009BFB"/>
			<stop offset="1.000000" stop-color="#1D3FA0"/>
		</linearGradient>
	</defs>
	<path id="Vector" d="M18.75 18.75C18.1 17.46 16.75 15.77 16.75 14.27C16.75 12.57 17.11 10.48 16.32 8.9C15.99 8.23 15.75 7.56 15.75 6.8L15.75 3.18C15.75 3.06 15.7 2.95 15.62 2.87C15.54 2.79 15.43 2.75 15.32 2.75C14.98 2.75 14.64 2.81 14.33 2.94C14.02 3.07 13.74 3.26 13.5 3.5C13.26 3.74 13.07 4.02 12.94 4.33C12.81 4.64 12.74 4.98 12.75 5.32M5.75 16.75L9.38 19.02C9.62 19.17 9.83 19.37 9.98 19.6L10.75 20.75" stroke="url(#paint_linear_101_543_0)" stroke-opacity="1.000000" stroke-width="1.500000" stroke-linejoin="round" stroke-linecap="round"/>
	<path id="Vector" d="M2.77 13.75C2.83 14.84 2.99 15.52 3.48 16.01C4.21 16.75 5.39 16.75 7.75 16.75C10.1 16.75 11.28 16.75 12.01 16.01C12.75 15.28 12.75 14.1 12.75 11.75L12.75 5.75C12.75 3.39 12.75 2.21 12.01 1.48C11.28 0.75 10.1 0.75 7.75 0.75C5.39 0.75 4.21 0.75 3.48 1.48C2.99 1.96 2.83 2.65 2.77 3.75" stroke="url(#paint_linear_101_544_0)" stroke-opacity="1.000000" stroke-width="1.500000" stroke-linejoin="round" stroke-linecap="round"/>
	<path id="Vector" d="M3.5 6.25C3.83 6.25 4.14 6.11 4.38 5.88C4.61 5.64 4.75 5.33 4.75 5C4.75 4.66 4.61 4.35 4.38 4.11C4.14 3.88 3.83 3.75 3.5 3.75L2 3.75C1.66 3.75 1.35 3.88 1.11 4.11C0.88 4.35 0.75 4.66 0.75 5C0.75 5.33 0.88 5.64 1.11 5.88C1.35 6.11 1.66 6.25 2 6.25L3.5 6.25ZM2 6.25L4.5 6.25C4.83 6.25 5.14 6.38 5.38 6.61C5.61 6.85 5.75 7.16 5.75 7.5C5.75 7.83 5.61 8.14 5.38 8.38C5.14 8.61 4.83 8.75 4.5 8.75L2 8.75C1.66 8.75 1.35 8.61 1.11 8.38C0.88 8.14 0.75 7.83 0.75 7.5C0.75 7.16 0.88 6.85 1.11 6.61C1.35 6.38 1.66 6.25 2 6.25M2 8.75L3.5 8.75C3.83 8.75 4.14 8.88 4.38 9.11C4.61 9.35 4.75 9.66 4.75 10C4.75 10.33 4.61 10.64 4.38 10.88C4.14 11.11 3.83 11.25 3.5 11.25L2 11.25C1.66 11.25 1.35 11.11 1.11 10.88C0.88 10.64 0.75 10.33 0.75 10C0.75 9.66 0.88 9.35 1.11 9.11C1.35 8.88 1.66 8.75 2 8.75M2 11.25L3 11.25C3.33 11.25 3.64 11.38 3.88 11.61C4.11 11.85 4.25 12.16 4.25 12.5C4.25 12.83 4.11 13.14 3.88 13.38C3.64 13.61 3.33 13.75 3 13.75L2 13.75C1.66 13.75 1.35 13.61 1.11 13.38C0.88 13.14 0.75 12.83 0.75 12.5C0.75 12.16 0.88 11.85 1.11 11.61C1.35 11.38 1.66 11.25 2 11.25M7.75 13.75L7.75 13.75" stroke="url(#paint_linear_101_545_0)" stroke-opacity="1.000000" stroke-width="1.500000" stroke-linejoin="round" stroke-linecap="round"/>
</svg>
