<svg width="23.250977" height="22.188965" viewBox="0 0 23.251 22.189" fill="none" xmlns="http://www.w3.org/2000/svg" xmlns:xlink="http://www.w3.org/1999/xlink">
	<desc>
			Created with Pixso.
	</desc>
	<defs>
		<linearGradient x1="0.000000" y1="10.344587" x2="22.501892" y2="10.344587" id="paint_linear_101_586_0" gradientUnits="userSpaceOnUse">
			<stop stop-color="#009BFB"/>
			<stop offset="1.000000" stop-color="#1D3FA0"/>
		</linearGradient>
		<linearGradient x1="12.750977" y1="16.938965" x2="23.250977" y2="16.938965" id="paint_linear_101_587_0" gradientUnits="userSpaceOnUse">
			<stop stop-color="#009BFB"/>
			<stop offset="1.000000" stop-color="#1D3FA0"/>
		</linearGradient>
	</defs>
	<path id="Vector" d="M10.19 0.43C10.47 0.15 10.85 0 11.25 0C11.64 0 12.03 0.15 12.31 0.43L15.75 3.87L15.75 1.93C15.75 1.74 15.83 1.54 15.97 1.4C16.11 1.26 16.3 1.18 16.5 1.18L18 1.18C18.19 1.18 18.39 1.26 18.53 1.4C18.67 1.54 18.75 1.74 18.75 1.93L18.75 6.87L22.28 10.4C22.35 10.47 22.4 10.56 22.44 10.65C22.48 10.74 22.5 10.84 22.5 10.93C22.5 11.03 22.48 11.13 22.44 11.22C22.4 11.31 22.35 11.4 22.28 11.47C22.21 11.54 22.12 11.59 22.03 11.63C21.94 11.67 21.84 11.68 21.75 11.68C21.65 11.68 21.55 11.67 21.46 11.63C21.37 11.59 21.28 11.54 21.21 11.47L11.25 1.49L3.75 8.99L3.75 18.43C3.75 18.63 3.82 18.82 3.97 18.96C4.11 19.11 4.3 19.18 4.5 19.18L10.5 19.18C10.69 19.18 10.89 19.26 11.03 19.4C11.17 19.54 11.25 19.74 11.25 19.93C11.25 20.13 11.17 20.32 11.03 20.46C10.89 20.61 10.69 20.68 10.5 20.68L4.5 20.68C3.9 20.68 3.33 20.45 2.9 20.03C2.48 19.6 2.25 19.03 2.25 18.43L2.25 10.49L1.28 11.47C1.21 11.54 1.12 11.59 1.03 11.63C0.94 11.67 0.84 11.68 0.75 11.68C0.65 11.68 0.55 11.67 0.46 11.63C0.37 11.59 0.28 11.54 0.21 11.47C0.15 11.4 0.09 11.31 0.05 11.22C0.01 11.13 0 11.03 0 10.93C0 10.84 0.01 10.74 0.05 10.65C0.09 10.56 0.15 10.47 0.21 10.4L10.19 0.43Z" fill="#313131" fill-opacity="1.000000" fill-rule="nonzero"/>
	<path id="Vector" d="M10.19 0.43C10.47 0.15 10.85 0 11.25 0C11.64 0 12.03 0.15 12.31 0.43L15.75 3.87L15.75 1.93C15.75 1.74 15.83 1.54 15.97 1.4C16.11 1.26 16.3 1.18 16.5 1.18L18 1.18C18.19 1.18 18.39 1.26 18.53 1.4C18.67 1.54 18.75 1.74 18.75 1.93L18.75 6.87L22.28 10.4C22.35 10.47 22.4 10.56 22.44 10.65C22.48 10.74 22.5 10.84 22.5 10.93C22.5 11.03 22.48 11.13 22.44 11.22C22.4 11.31 22.35 11.4 22.28 11.47C22.21 11.54 22.12 11.59 22.03 11.63C21.94 11.67 21.84 11.68 21.75 11.68C21.65 11.68 21.55 11.67 21.46 11.63C21.37 11.59 21.28 11.54 21.21 11.47L11.25 1.49L3.75 8.99L3.75 18.43C3.75 18.63 3.82 18.82 3.97 18.96C4.11 19.11 4.3 19.18 4.5 19.18L10.5 19.18C10.69 19.18 10.89 19.26 11.03 19.4C11.17 19.54 11.25 19.74 11.25 19.93C11.25 20.13 11.17 20.32 11.03 20.46C10.89 20.61 10.69 20.68 10.5 20.68L4.5 20.68C3.9 20.68 3.33 20.45 2.9 20.03C2.48 19.6 2.25 19.03 2.25 18.43L2.25 10.49L1.28 11.47C1.21 11.54 1.12 11.59 1.03 11.63C0.94 11.67 0.84 11.68 0.75 11.68C0.65 11.68 0.55 11.67 0.46 11.63C0.37 11.59 0.28 11.54 0.21 11.47C0.15 11.4 0.09 11.31 0.05 11.22C0.01 11.13 0 11.03 0 10.93C0 10.84 0.01 10.74 0.05 10.65C0.09 10.56 0.15 10.47 0.21 10.4L10.19 0.43Z" fill="url(#paint_linear_101_586_0)" fill-opacity="1.000000" fill-rule="nonzero"/>
	<path id="Vector" d="M18 11.68C19.39 11.68 20.72 12.24 21.71 13.22C22.69 14.21 23.25 15.54 23.25 16.93C23.25 18.33 22.69 19.66 21.71 20.65C20.72 21.63 19.39 22.18 18 22.18C16.6 22.18 15.27 21.63 14.28 20.65C13.3 19.66 12.75 18.33 12.75 16.93C12.75 15.54 13.3 14.21 14.28 13.22C15.27 12.24 16.6 11.68 18 11.68ZM18.53 20.46L20.78 18.21C20.92 18.07 21 17.88 21 17.68C21 17.49 20.92 17.29 20.78 17.15C20.64 17.01 20.44 16.93 20.25 16.93C20.05 16.93 19.86 17.01 19.71 17.15L18.75 18.12L18.75 13.93C18.75 13.74 18.67 13.54 18.53 13.4C18.39 13.26 18.19 13.18 18 13.18C17.8 13.18 17.61 13.26 17.47 13.4C17.33 13.54 17.25 13.74 17.25 13.93L17.25 18.12L16.28 17.15C16.14 17.01 15.95 16.93 15.75 16.93C15.55 16.93 15.36 17.01 15.22 17.15C15.07 17.29 15 17.49 15 17.68C15 17.88 15.07 18.07 15.22 18.21L17.46 20.46C17.53 20.54 17.62 20.59 17.71 20.63C17.8 20.67 17.9 20.69 18 20.69C18.09 20.69 18.19 20.67 18.28 20.63C18.37 20.59 18.46 20.54 18.53 20.46Z" fill="#313131" fill-opacity="1.000000" fill-rule="nonzero"/>
	<path id="Vector" d="M18 11.68C19.39 11.68 20.72 12.24 21.71 13.22C22.69 14.21 23.25 15.54 23.25 16.93C23.25 18.33 22.69 19.66 21.71 20.65C20.72 21.63 19.39 22.18 18 22.18C16.6 22.18 15.27 21.63 14.28 20.65C13.3 19.66 12.75 18.33 12.75 16.93C12.75 15.54 13.3 14.21 14.28 13.22C15.27 12.24 16.6 11.68 18 11.68ZM18.53 20.46L20.78 18.21C20.92 18.07 21 17.88 21 17.68C21 17.49 20.92 17.29 20.78 17.15C20.64 17.01 20.44 16.93 20.25 16.93C20.05 16.93 19.86 17.01 19.71 17.15L18.75 18.12L18.75 13.93C18.75 13.74 18.67 13.54 18.53 13.4C18.39 13.26 18.19 13.18 18 13.18C17.8 13.18 17.61 13.26 17.47 13.4C17.33 13.54 17.25 13.74 17.25 13.93L17.25 18.12L16.28 17.15C16.14 17.01 15.95 16.93 15.75 16.93C15.55 16.93 15.36 17.01 15.22 17.15C15.07 17.29 15 17.49 15 17.68C15 17.88 15.07 18.07 15.22 18.21L17.46 20.46C17.53 20.54 17.62 20.59 17.71 20.63C17.8 20.67 17.9 20.69 18 20.69C18.09 20.69 18.19 20.67 18.28 20.63C18.37 20.59 18.46 20.54 18.53 20.46Z" fill="url(#paint_linear_101_587_0)" fill-opacity="1.000000" fill-rule="nonzero"/>
</svg>
