<svg width="17.500000" height="21.500000" viewBox="0 0 17.5 21.5" fill="none" xmlns="http://www.w3.org/2000/svg" xmlns:xlink="http://www.w3.org/1999/xlink">
	<desc>
			Created with Pixso.
	</desc>
	<defs>
		<linearGradient x1="11.750000" y1="3.500000" x2="16.250000" y2="3.500000" id="paint_linear_101_610_0" gradientUnits="userSpaceOnUse">
			<stop stop-color="#009BFB"/>
			<stop offset="1.000000" stop-color="#1D3FA0"/>
		</linearGradient>
		<linearGradient x1="0.750000" y1="10.750000" x2="16.750000" y2="10.750000" id="paint_linear_101_611_0" gradientUnits="userSpaceOnUse">
			<stop stop-color="#009BFB"/>
			<stop offset="1.000000" stop-color="#1D3FA0"/>
		</linearGradient>
	</defs>
	<path id="Vector" d="M11.75 1.25L11.75 2.75C11.75 4.16 11.75 4.87 12.19 5.31C12.62 5.75 13.33 5.75 14.75 5.75L16.25 5.75" stroke="#313131" stroke-opacity="1.000000" stroke-width="1.500000" stroke-linejoin="round" stroke-linecap="round"/>
	<path id="Vector" d="M11.75 1.25L11.75 2.75C11.75 4.16 11.75 4.87 12.19 5.31C12.62 5.75 13.33 5.75 14.75 5.75L16.25 5.75" stroke="url(#paint_linear_101_610_0)" stroke-opacity="1.000000" stroke-width="1.500000" stroke-linejoin="round" stroke-linecap="round"/>
	<path id="Vector" d="M0.75 6.75C0.75 3.92 0.75 2.5 1.62 1.62C2.5 0.75 3.92 0.75 6.75 0.75L10.92 0.75C11.33 0.75 11.53 0.75 11.71 0.82C11.9 0.9 12.04 1.04 12.33 1.33L16.16 5.16C16.45 5.45 16.59 5.59 16.67 5.78C16.75 5.96 16.75 6.16 16.75 6.57L16.75 14.75C16.75 17.57 16.75 18.99 15.87 19.87C14.99 20.75 13.57 20.75 10.75 20.75L6.75 20.75C3.92 20.75 2.5 20.75 1.62 19.87C0.75 18.99 0.75 17.57 0.75 14.75L0.75 6.75ZM4.75 9.75L12.75 9.75M4.75 12.75L12.75 12.75M4.75 15.75L8.92 15.75" stroke="#313131" stroke-opacity="1.000000" stroke-width="1.500000" stroke-linejoin="round" stroke-linecap="round"/>
	<path id="Vector" d="M0.75 6.75C0.75 3.92 0.75 2.5 1.62 1.62C2.5 0.75 3.92 0.75 6.75 0.75L10.92 0.75C11.33 0.75 11.53 0.75 11.71 0.82C11.9 0.9 12.04 1.04 12.33 1.33L16.16 5.16C16.45 5.45 16.59 5.59 16.67 5.78C16.75 5.96 16.75 6.16 16.75 6.57L16.75 14.75C16.75 17.57 16.75 18.99 15.87 19.87C14.99 20.75 13.57 20.75 10.75 20.75L6.75 20.75C3.92 20.75 2.5 20.75 1.62 19.87C0.75 18.99 0.75 17.57 0.75 14.75L0.75 6.75ZM4.75 9.75L12.75 9.75M4.75 12.75L12.75 12.75M4.75 15.75L8.92 15.75" stroke="url(#paint_linear_101_611_0)" stroke-opacity="1.000000" stroke-width="1.500000" stroke-linejoin="round" stroke-linecap="round"/>
</svg>
