<svg width="20.000107" height="20.000000" viewBox="0 0 20.0001 20" fill="none" xmlns="http://www.w3.org/2000/svg" xmlns:xlink="http://www.w3.org/1999/xlink">
	<desc>
			Created with Pixso.
	</desc>
	<defs>
		<linearGradient x1="7.000107" y1="6.821999" x2="18.000107" y2="6.821999" id="paint_linear_101_577_0" gradientUnits="userSpaceOnUse">
			<stop stop-color="#009BFB"/>
			<stop offset="1.000000" stop-color="#1D3FA0"/>
		</linearGradient>
		<linearGradient x1="1.000107" y1="9.999998" x2="19.000109" y2="9.999998" id="paint_linear_101_578_0" gradientUnits="userSpaceOnUse">
			<stop stop-color="#009BFB"/>
			<stop offset="1.000000" stop-color="#1D3FA0"/>
		</linearGradient>
	</defs>
	<path id="Vector" d="M7 8L10.25 10.44C10.45 10.59 10.71 10.66 10.96 10.63C11.21 10.61 11.44 10.49 11.61 10.3L18 3" stroke="url(#paint_linear_101_577_0)" stroke-opacity="1.000000" stroke-width="2.000000" stroke-linecap="round"/>
	<path id="Vector" d="M19 10C19 11.88 18.41 13.71 17.31 15.24C16.22 16.77 14.67 17.91 12.89 18.52C11.11 19.12 9.18 19.15 7.38 18.61C5.58 18.06 4 16.97 2.85 15.47C1.71 13.98 1.06 12.17 1 10.29C0.94 8.41 1.47 6.56 2.51 4.99C3.56 3.43 5.07 2.23 6.83 1.57C8.59 0.91 10.51 0.81 12.33 1.3" stroke="url(#paint_linear_101_578_0)" stroke-opacity="1.000000" stroke-width="2.000000" stroke-linecap="round"/>
</svg>
