<svg width="24.000000" height="24.000000" viewBox="0 0 24 24" fill="none" xmlns="http://www.w3.org/2000/svg" xmlns:xlink="http://www.w3.org/1999/xlink">
	<desc>
			Created with Pixso.
	</desc>
	<defs>
		<clipPath id="clip101_593">
			<rect id="solar:pen-linear" rx="0.000000" width="23.000000" height="23.000000" transform="translate(0.500000 0.500000)" fill="white" fill-opacity="0"/>
		</clipPath>
		<linearGradient x1="1.999023" y1="12.000347" x2="21.999741" y2="12.000347" id="paint_linear_101_594_0" gradientUnits="userSpaceOnUse">
			<stop stop-color="#009BFB"/>
			<stop offset="1.000000" stop-color="#1D3FA0"/>
		</linearGradient>
	</defs>
	<rect id="solar:pen-linear" rx="0.000000" width="23.000000" height="23.000000" transform="translate(0.500000 0.500000)" fill="#FFFFFF" fill-opacity="0"/>
	<g clip-path="url(#clip101_593)">
		<path id="Vector" d="M2.32 19.8L3.41 16.52C3.67 15.74 3.8 15.35 3.97 14.99C4.18 14.56 4.43 14.15 4.72 13.78C4.97 13.46 5.26 13.17 5.83 12.59L14.36 4.07L15.28 3.15C16.02 2.41 17.02 2 18.06 2C19.11 2 20.11 2.41 20.84 3.15C21.58 3.88 21.99 4.88 21.99 5.93C21.99 6.97 21.58 7.97 20.84 8.71L19.92 9.64L11.4 18.16C10.82 18.73 10.53 19.02 10.21 19.27C9.84 19.56 9.43 19.81 9 20.02C8.64 20.19 8.25 20.32 7.47 20.58L4.19 21.67L3.39 21.94C3.2 22 3 22.01 2.81 21.97C2.62 21.92 2.44 21.82 2.3 21.68C2.17 21.55 2.07 21.37 2.02 21.18C1.98 20.99 1.99 20.79 2.05 20.6L2.32 19.8L4.19 21.67M14.36 4.07C14.36 4.07 14.47 6.04 16.21 7.78C17.95 9.52 19.92 9.64 19.92 9.64" stroke="url(#paint_linear_101_594_0)" stroke-opacity="1.000000" stroke-width="2.000000"/>
	</g>
</svg>
