<svg width="56.000000" height="56.000000" viewBox="0 0 56 56" fill="none" xmlns="http://www.w3.org/2000/svg" xmlns:xlink="http://www.w3.org/1999/xlink">
	<desc>
			Created with Pixso.
	</desc>
	<defs>
		<clipPath id="clip525_997">
			<rect id="tabler:key" rx="0.000000" width="31.000000" height="31.000000" transform="translate(12.500000 12.500000)" fill="white" fill-opacity="0"/>
		</clipPath>
		<clipPath id="clip525_993">
			<rect id="Icon" rx="13.500000" width="55.000000" height="55.000000" transform="translate(0.500000 0.500000)" fill="white" fill-opacity="0"/>
		</clipPath>
		<linearGradient x1="-33.708496" y1="-42.069832" x2="-33.708496" y2="41.092293" id="paint_linear_525_995_0" gradientUnits="userSpaceOnUse">
			<stop stop-color="#DAE2FF" stop-opacity="0.560784"/>
			<stop offset="1.000000" stop-color="#FFFFFF" stop-opacity="0.200000"/>
		</linearGradient>
		<linearGradient x1="9.843468" y1="-4.622845" x2="-86.490021" y2="16.720501" id="paint_linear_525_995_1" gradientUnits="userSpaceOnUse">
			<stop stop-color="#B5C2FB"/>
			<stop offset="1.000000" stop-color="#B5C2FB" stop-opacity="0.000000"/>
		</linearGradient>
		<linearGradient x1="-2.489746" y1="-62.386238" x2="-2.489746" y2="20.775887" id="paint_linear_525_996_0" gradientUnits="userSpaceOnUse">
			<stop stop-color="#B4C4FF" stop-opacity="0.501961"/>
			<stop offset="0.999900" stop-color="#E1E8FF" stop-opacity="0.082353"/>
			<stop offset="1.000000" stop-color="#4C5C99" stop-opacity="0.078431"/>
		</linearGradient>
		<radialGradient gradientTransform="rotate(90) scale(86.1425 86.1425)" cx="0.000000" cy="0.000000" r="1.000000" id="paint_radial_525_996_1" gradientUnits="userSpaceOnUse">
			<stop offset="0.046875" stop-color="#B5C2FB" stop-opacity="0.000000"/>
			<stop offset="1.000000" stop-color="#B5C2FB"/>
		</radialGradient>
	</defs>
	<rect id="Icon" rx="13.500000" width="55.000000" height="55.000000" transform="translate(0.500000 0.500000)" fill="#FFFFFF" fill-opacity="1.000000"/>
	<g clip-path="url(#clip525_993)">
		<circle id="Ellipse 13" r="41.581062" transform="matrix(0.999975 -0.00703656 0.00703656 0.999975 7.87256 41.0923)" fill="url(#paint_linear_525_995_0)" fill-opacity="1.000000"/>
		<circle id="Ellipse 13" r="41.538136" transform="matrix(0.999975 -0.00703656 0.00703656 0.999975 7.87256 41.0923)" stroke="url(#paint_linear_525_995_1)" stroke-opacity="1.000000" stroke-width="0.085853"/>
		<g opacity="0.400000">
			<circle id="Ellipse 11" r="41.581062" transform="matrix(0.999975 -0.00703656 0.00703656 0.999975 39.0913 20.7759)" fill="url(#paint_linear_525_996_0)" fill-opacity="1.000000"/>
			<circle id="Ellipse 11" r="41.538136" transform="matrix(0.999975 -0.00703656 0.00703656 0.999975 39.0913 20.7759)" stroke="url(#paint_radial_525_996_1)" stroke-opacity="1.000000" stroke-width="0.085853"/>
		</g>
		<rect id="tabler:key" rx="0.000000" width="31.000000" height="31.000000" transform="translate(12.500000 12.500000)" fill="#FFFFFF" fill-opacity="0"/>
		<g clip-path="url(#clip525_997)">
			<path id="Vector" d="M38.87 21.92C39.23 22.28 39.51 22.7 39.7 23.17C39.9 23.63 39.99 24.13 39.99 24.63C39.99 25.14 39.9 25.64 39.7 26.1C39.51 26.57 39.23 26.99 38.87 27.35L35.35 30.87C34.99 31.23 34.57 31.51 34.1 31.7C33.64 31.9 33.14 31.99 32.63 31.99C32.13 31.99 31.63 31.9 31.17 31.7C30.7 31.51 30.28 31.23 29.92 30.87L29.52 30.47L20.78 39.21C20.33 39.66 19.75 39.93 19.12 39.98L18.89 39.99L17.33 39.99C17 39.99 16.69 39.87 16.44 39.66C16.2 39.44 16.04 39.14 16 38.82L16 38.66L16 37.1C16 36.47 16.22 35.87 16.62 35.39L16.78 35.21L17.33 34.66L20 34.66L20 31.99L22.66 31.99L22.66 29.33L25.52 26.47L25.12 26.07C24.76 25.71 24.48 25.29 24.29 24.82C24.09 24.36 24 23.86 24 23.36C24 22.85 24.09 22.35 24.29 21.89C24.48 21.42 24.76 21 25.12 20.64L28.64 17.12C29 16.76 29.42 16.48 29.89 16.29C30.35 16.09 30.85 16 31.36 16C31.86 16 32.36 16.09 32.82 16.29C33.29 16.48 33.71 16.76 34.07 17.12L38.87 21.92ZM32 23.99L32.01 23.99" stroke="#34343F" stroke-opacity="1.000000" stroke-width="2.000000" stroke-linejoin="round" stroke-linecap="round"/>
		</g>
	</g>
</svg>
